<svg width="94" height="94" viewBox="0 0 94 94" fill="none" xmlns="http://www.w3.org/2000/svg">
<path d="M30.9183 77.7497C13.8706 77.7497 0 63.9516 0 46.8203C0 72.711 20.9997 93.7182 46.8812 93.7182C72.7628 93.7182 93.7625 72.711 93.7625 46.8203H61.7592C61.8367 63.9516 48.0436 77.7497 30.9183 77.7497Z" fill="#0B579D"/>
<path d="M0.0773926 46.8979C0.0773926 63.9517 13.8706 77.8272 30.9958 77.8272C48.0435 77.8272 61.9141 64.0292 61.9141 46.8979H46.9586H0.0773926Z" fill="#3EA2FF"/>
<path d="M62.9215 15.9685C79.9692 15.9685 93.8399 29.7666 93.8399 46.8978C93.8399 21.0071 72.8402 0 46.9586 0C21.0771 0 0.0773926 21.0071 0.0773926 46.8978H32.0806C32.0806 29.8441 45.8738 15.9685 62.9215 15.9685Z" fill="#3EA2FF"/>
<path d="M93.8399 46.8978C93.8399 29.8441 80.0467 15.9685 62.9215 15.9685C45.8738 15.9685 32.0032 29.7666 32.0032 46.8978H46.9587H93.8399Z" fill="#0B579D"/>
<path d="M0.0773926 46.8979C0.0773926 63.9517 13.8706 77.8272 30.9958 77.8272C48.0435 77.8272 61.9141 64.0292 61.9141 46.8979H46.9586H0.0773926Z" fill="url(#paint0_linear_306_199)"/>
<path d="M0.0773926 46.8979C0.0773926 63.9517 13.8706 77.8272 30.9958 77.8272C48.0435 77.8272 61.9141 64.0292 61.9141 46.8979H46.9586H0.0773926Z" fill="url(#paint1_linear_306_199)"/>
<path d="M93.8399 46.8978C93.8399 29.8441 80.0467 15.9685 62.9215 15.9685C45.8738 15.9685 32.0032 29.7666 32.0032 46.8978H46.9587H93.8399Z" fill="url(#paint2_linear_306_199)"/>
<path d="M32.0806 46.8979C32.0806 55.1148 38.7447 61.7812 46.9586 61.7812C55.1725 61.7812 61.8366 55.1148 61.8366 46.8979H54.6301H32.0806Z" fill="url(#paint3_linear_306_199)"/>
<path d="M61.6816 46.8978C61.6816 38.681 55.0175 32.092 46.8811 32.092C38.6672 32.092 32.0806 38.7585 32.0806 46.8978H39.2096H61.6816Z" fill="url(#paint4_linear_306_199)"/>
<defs>
<linearGradient id="paint0_linear_306_199" x1="30.9537" y1="76.7003" x2="30.9537" y2="47.8222" gradientUnits="userSpaceOnUse">
<stop stop-color="#002ED1" stop-opacity="0.25"/>
<stop offset="1" stop-opacity="0"/>
</linearGradient>
<linearGradient id="paint1_linear_306_199" x1="30.9537" y1="76.7003" x2="30.9537" y2="47.8222" gradientUnits="userSpaceOnUse">
<stop stop-color="#002ED1" stop-opacity="0.25"/>
<stop offset="1" stop-opacity="0"/>
</linearGradient>
<linearGradient id="paint2_linear_306_199" x1="62.956" y1="17.4041" x2="62.956" y2="48.2324" gradientUnits="userSpaceOnUse">
<stop stop-opacity="0.25"/>
<stop offset="1" stop-opacity="0"/>
</linearGradient>
<linearGradient id="paint3_linear_306_199" x1="46.9799" y1="47.6819" x2="46.9801" y2="61.8594" gradientUnits="userSpaceOnUse">
<stop stop-opacity="0.25"/>
<stop offset="1" stop-opacity="0"/>
</linearGradient>
<linearGradient id="paint4_linear_306_199" x1="46.8896" y1="46.8892" x2="46.8897" y2="32.1467" gradientUnits="userSpaceOnUse">
<stop stop-opacity="0.25"/>
<stop offset="1" stop-opacity="0"/>
</linearGradient>
</defs>
</svg>
